<?xml version="1.0" encoding="UTF-8"?>
<svg width="499px" height="82px" viewBox="0 0 499 82" version="1.1" xmlns="http://www.w3.org/2000/svg" xmlns:xlink="http://www.w3.org/1999/xlink">
    <!-- Generator: Sketch 54.1 (76490) - https://sketchapp.com -->
    <title>binck-bank-logo</title>
    <desc>Created with Sketch.</desc>
    <g id="Page-1" stroke="none" stroke-width="1" fill="none" fill-rule="evenodd">
        <g id="Artboard" transform="translate(-1343.000000, -235.000000)">
            <g id="binck-bank-logo" transform="translate(1343.000000, 235.000000)">
                <path d="M143.481481,64.037037 C152.277778,64.037037 156.203704,61.8703704 156.203704,55.7592593 C156.203704,49.6481481 151.962963,46.8703704 143.388889,46.8703704 L133.333333,46.8703704 L133.333333,64.037037 L143.574074,64.037037 L143.481481,64.037037 Z M151.851852,26.8888889 C151.851852,21.5185185 148.759259,18.8333333 142.351852,18.8333333 L133.333333,18.8333333 L133.333333,34.2407407 L142.444444,34.2407407 C148.759259,34.2407407 151.851852,31.8703704 151.851852,26.8888889 Z M115.425926,6.31481481 L141.518519,6.31481481 C160.240741,6.31481481 169.666667,12.5185185 169.666667,24.4074074 C169.75488,30.5532408 165.987386,36.0971553 160.240741,38.2777778 C170.074074,41.3888889 174.925926,47.3703704 174.925926,56.6851852 C174.925926,70.2654321 165.617284,77.0555556 147,77.0555556 L115.518519,77.0555556 L115.425926,6.31481481 Z M199.666667,6.31481481 L199.666667,76.9814815 L217.87037,76.9814815 L217.87037,6.31481481 L199.666667,6.31481481 Z M267.388889,76.9814815 L249.888889,76.9814815 L249.888889,6.31481481 L265.425926,6.31481481 L303.296296,48.4074074 L303.296296,6.31481481 L320.777778,6.31481481 L320.777778,76.9814815 L306.907407,76.9814815 L267.388889,32.537037 L267.388889,76.9814815 Z M379.277778,78.2037037 C368.018519,78.2037037 358.685185,74.7037037 351.87037,68.2777778 C344.684274,61.3174449 340.707709,51.6878543 340.888889,41.6851852 C340.888889,20.1666667 356.425926,5.07407407 380.925926,5.07407407 C389.508959,5.05839278 397.978358,7.03627633 405.666667,10.8518519 L405.666667,27.4074074 C398.707171,22.6428318 390.506666,20.0166104 382.074074,19.8518519 C367.796296,19.8518519 359.111111,28.1481481 359.111111,41.6851852 C359.111111,54.6481481 367.388889,63.4259259 380.722222,63.4259259 C389.203704,63.4259259 397.814815,60.4259259 406.296296,54.5185185 L406.296296,71.0740741 C398.084515,75.8113188 388.757762,78.2724566 379.277778,78.2037037 L379.277778,78.2037037 Z M431.018519,6.31481481 L448.703704,6.31481481 L448.703704,37.7962963 L472.777778,6.31481481 L492.592593,6.31481481 L467.537037,39 L498.796296,76.9814815 L475.814815,76.9814815 L448.703704,43.7592593 L448.703704,76.9814815 L431.018519,76.9814815 L431.018519,6.31481481 Z" id="Shape" fill="#1C3964"></path>
                <path d="M25.2407407,81.5740741 L7.7037037,68.0185185 C13.2962963,61.7222222 19.117284,55.691358 25.1666667,49.9259259 L29.6296296,45.5 C27.7777778,45.1851852 22.2222222,43.9074074 12.962963,41.6481481 C6.44444444,40.0185185 2.09259259,38.8888889 0,38.0555556 L7.09259259,17.4074074 C16.4690931,21.2052178 25.5074949,25.7894654 34.1111111,31.1111111 C32.4647872,20.8177119 31.5366203,10.4222418 31.3333333,-1.0658141e-14 L51.9814815,-1.0658141e-14 C51.5289041,10.5019628 50.4778151,20.9695723 48.8333333,31.3518519 C50.3888889,30.7407407 53.7407407,29.2222222 58.9259259,26.8148148 C66,23.6296296 72.5123457,20.9074074 78.462963,18.6481481 L84.5555556,39.7962963 C75.9135802,41.7345679 65.8641975,43.6358025 54.4074074,45.5 L68.5185185,61.2222222 C71.3333333,64.3888889 73.537037,66.9814815 75.1851852,69.0185185 L57.4074074,80.8333333 L41.6111111,54.9074074 C36.882716,63.2777778 31.4506173,72.1975309 25.3148148,81.6666667" id="Path" fill="#8FBF22"></path>
            </g>
        </g>
    </g>
</svg>