<?xml version="1.0" encoding="UTF-8"?>
<svg width="498px" height="71px" viewBox="0 0 498 71" version="1.1" xmlns="http://www.w3.org/2000/svg" xmlns:xlink="http://www.w3.org/1999/xlink">
    <!-- Generator: Sketch 54.1 (76490) - https://sketchapp.com -->
    <title>logo-degiro-2018</title>
    <desc>Created with Sketch.</desc>
    <g id="Page-1" stroke="none" stroke-width="1" fill="none" fill-rule="evenodd">
        <g id="Artboard" transform="translate(-1343.000000, -391.000000)" fill-rule="nonzero">
            <g id="logo-degiro-2018" transform="translate(1343.000000, 391.000000)">
                <path d="M191.495261,35.556872 C191.495261,61.4585308 173.99763,69.5189573 151.815166,69.5189573 L129.42654,69.5189573 L129.42654,1.66350711 L151.819905,1.66350711 C173.99763,1.66350711 191.495261,9.72037915 191.495261,35.556872 Z M145.477488,15.1706161 L145.477488,56.0853081 L152.091232,56.0853081 C163.870853,56.0853081 174.548578,53.5367299 174.548578,35.6255924 C174.548578,17.7831754 163.870853,15.2345972 152.091232,15.2345972 L145.477488,15.2345972 L145.477488,15.1706161 Z" id="Path_1" fill="#000000"></path>
                <polygon id="Path_2" fill="#000000" points="251.707346 1.66350711 251.707346 15.7168246 215.675355 15.7168246 215.675355 27.6338863 249.706161 27.6338863 249.706161 41.757109 215.675355 41.757109 215.675355 55.3969194 251.707346 55.3969194 251.707346 69.5189573 199.693128 69.5189573 199.693128 1.66350711"></polygon>
                <path d="M309.156398,22.9549763 C307.778436,18.2701422 302.956161,13.792654 294.276066,13.792654 C284.425355,13.792654 276.778436,21.0947867 276.778436,35.4241706 C276.778436,49.7535545 283.874408,57.6066351 294.550948,57.6066351 C301.921801,57.6066351 309.637441,54.7819905 309.637441,46.1706161 L309.637441,44.8672986 L293.242891,44.8672986 L293.242891,31.7677725 L325.620853,31.7677725 L325.620853,69.5876777 L313.35782,69.5876777 L312.875592,62.0793839 C308.466825,68.0035545 301.856635,70.7594787 292.07109,70.7594787 C272.024882,70.7594787 259.761848,57.1196682 259.761848,35.4194313 C259.831754,13.9265403 273.885071,0.561611374 294.478673,0.561611374 C309.565166,0.561611374 321.689573,8.14454976 324.859005,22.9549763 L309.156398,22.9549763 Z" id="Path_3" fill="#000000"></path>
                <polygon id="Path_4" fill="#000000" points="337.263033 69.5189573 337.263033 1.66350711 353.245261 1.66350711 353.245261 69.5189573"></polygon>
                <g id="Group_1" transform="translate(364.887441, 0.561611)" fill="#000000">
                    <path d="M15.9822275,43.4004739 L15.9822275,68.957346 L0,68.957346 L0,1.10189573 L26.1090047,1.10189573 C43.6753555,1.10189573 56.9016588,5.23578199 56.9016588,22.0438389 C56.9016588,32.0331754 51.3909953,37.75 43.6066351,40.7819905 L60.3471564,68.957346 L41.5402844,68.957346 L26.7973934,43.4004739 L15.9822275,43.4004739 Z M15.9822275,29.9668246 L26.5272512,29.9668246 C34.1101896,29.9668246 39.8921801,28.6635071 39.8921801,22.3199052 C39.8921801,16.0509479 34.1054502,14.6729858 26.5272512,14.6729858 L15.9822275,14.6729858 L15.9822275,29.9668246 Z" id="Path_5"></path>
                    <path d="M62.5509479,35.063981 C62.5509479,13.9158768 76.8791469,0 97.7535545,0 C118.558057,0 132.954976,13.9158768 132.954976,35.063981 C132.954976,56.2120853 118.556872,70.1279621 97.7535545,70.1279621 C76.8791469,70.1978673 62.5509479,56.2132701 62.5509479,35.063981 Z M116.008294,35.063981 C116.008294,20.6658768 107.672986,13.1575829 97.7535545,13.1575829 C87.8341232,13.1575829 79.4940758,20.6670616 79.4940758,35.063981 C79.4940758,49.4609005 87.8293839,56.9703791 97.75,56.9703791 C107.670616,56.9703791 116.008294,49.5260664 116.008294,35.063981 Z" id="Path_6"></path>
                </g>
                <rect id="Rectangle_1" fill="#009DE0" x="0.329383886" y="1.66350711" width="113.183649" height="27.3483412"></rect>
                <rect id="Rectangle_2" fill="#009DE0" x="0.329383886" y="42.1706161" width="113.183649" height="27.3483412"></rect>
            </g>
        </g>
    </g>
</svg>