<?xml version="1.0" encoding="UTF-8"?>
<svg width="500px" height="103px" viewBox="0 0 500 103" version="1.1" xmlns="http://www.w3.org/2000/svg" xmlns:xlink="http://www.w3.org/1999/xlink">
    <!-- Generator: Sketch 54.1 (76490) - https://sketchapp.com -->
    <title>societeGeneral</title>
    <desc>Created with Sketch.</desc>
    <g id="Page-1" stroke="none" stroke-width="1" fill="none" fill-rule="evenodd">
        <g id="Artboard" transform="translate(-643.000000, -67.000000)" fill-rule="nonzero">
            <g id="societeGeneral" transform="translate(643.000000, 67.500000)">
                <path d="M164.5,13.31 C159.519837,11.0789436 154.153903,9.83594875 148.7,9.65 C141.42,9.65 137.78,11.21 137.78,14.02 C137.78,22.07 170.25,15.6 170.25,32.77 C170.25,39.87 163.58,45.36 150.25,45.36 C142.802105,45.4721226 135.461557,43.5756703 129,39.87 L131.94,33.47 C137.50659,36.7307605 143.838699,38.4561307 150.29,38.47 C158.21,38.47 162.46,36.19 162.46,32.77 C162.46,23.97 129.97,30.54 129.97,14.45 C129.97,7.52 136.59,2.74 148.56,2.74 C155.133003,2.68852571 161.622033,4.21818092 167.48,7.2 L164.5,13.31 Z" id="Path" fill="#1D1D1B"></path>
                <path d="M200.7,45.57 C187.7,45.57 176.98,36.94 176.98,24.03 C176.98,11.12 187.73,2.46 200.7,2.46 C213.67,2.46 224.33,11.27 224.33,24 C224.33,36.73 213.74,45.57 200.7,45.57 M200.7,9.42 C191.25,9.42 184.8,15.81 184.8,24.03 C184.8,32.44 190.97,38.69 200.7,38.69 C210.43,38.69 216.5,32.38 216.5,24 C216.5,15.62 210.36,9.42 200.7,9.42" id="Shape" fill="#1D1D1B"></path>
                <path d="M255.31,45.53 C241.68,45.53 231.42,36.9 231.42,23.97 C231.42,11.27 241.84,2.46 255.31,2.46 C262.133326,2.27941722 268.815423,4.42332994 274.26,8.54 L270.26,14.54 C266.072322,11.240932 260.880707,9.47627664 255.55,9.54 C245.61,9.54 239.43,15.82 239.43,23.98 C239.43,32.39 245.67,38.48 255.65,38.48 C261.036461,38.5745462 266.297122,36.8480064 270.58,33.58 L274.58,39.58 C269.41,43.38 263.34,45.58 255.3,45.58" id="Path" fill="#1D1D1B"></path>
                <rect id="Rectangle" fill="#1D1D1B" x="282.82" y="3.71" width="7.57" height="40.72"></rect>
                <polygon id="Path" fill="#1D1D1B" points="301.56 44.43 301.56 3.71 338.64 3.71 338.64 10.45 309.12 10.45 309.12 20.34 332.06 20.34 332.06 27.05 309.12 27.05 309.12 37.7 339.94 37.7 339.94 44.43"></polygon>
                <polygon id="Path" fill="#1D1D1B" points="368.12 10.4 368.12 44.43 360.58 44.43 360.58 10.4 343.98 10.4 343.98 3.71 384.7 3.71 384.7 10.4"></polygon>
                <polygon id="Path" fill="#1D1D1B" points="390.78 44.43 390.78 3.71 427.86 3.71 427.86 10.45 398.33 10.45 398.33 20.34 421.3 20.34 421.3 27.05 398.33 27.05 398.33 37.7 429.16 37.7 429.16 44.43"></polygon>
                <path d="M152.27,92.63 C156.273834,92.6421167 160.234573,91.8036125 163.89,90.17 L163.89,78.33 L171.23,78.33 L171.23,94.14 C165.469043,97.8144808 158.772995,99.7549115 151.94,99.73 C138.33,99.73 128.07,91.11 128.07,78.18 C128.07,65.47 138.49,56.69 151.94,56.69 C158.767203,56.501115 165.459458,58.6144585 170.94,62.69 L166.94,68.69 C162.722462,65.4417106 157.522317,63.7306726 152.2,63.84 C142.27,63.63 136.1,70.04 136.1,78.18 C136.1,86.6 142.34,92.63 152.32,92.63" id="Path" fill="#1D1D1B"></path>
                <polygon id="Path" fill="#1D1D1B" points="181.17 98.64 181.17 57.93 218.26 57.93 218.26 64.65 188.71 64.65 188.71 74.54 211.68 74.54 211.68 81.27 188.71 81.27 188.71 91.92 219.55 91.92 219.55 98.64"></polygon>
                <path d="M234.36,98.64 L227,98.64 L227,57.93 L234.7,57.93 L261.25,88.61 L261.43,88.55 C260.99,80.85 260.93,74.55 260.93,68.55 L260.93,57.93 L268.31,57.93 L268.31,98.64 L260.67,98.64 L234.19,68 L234.07,68.06 C234.36,74.06 234.36,84.61 234.36,88.06 L234.36,98.64 Z" id="Path" fill="#1D1D1B"></path>
                <polygon id="Path" fill="#1D1D1B" points="278.92 98.64 278.92 57.93 315.99 57.93 315.99 64.65 286.46 64.65 286.46 74.54 309.42 74.54 309.42 81.27 286.46 81.27 286.46 91.92 317.31 91.92 317.31 98.64"></polygon>
                <path d="M345,83.66 L332.83,83.66 L332.83,98.66 L325.28,98.66 L325.28,57.93 L351.45,57.93 C360.13,57.93 365.51,63.26 365.51,70.93 C365.51,78.2 360.23,82.54 353.84,83.47 L366,98.64 L356.5,98.64 L345,83.66 Z M350.64,76.88 C355.36,76.88 358.03,74.44 358.03,70.88 C358.03,67.02 355.69,64.62 351.45,64.62 L332.83,64.62 L332.83,76.88 L350.64,76.88 Z" id="Shape" fill="#1D1D1B"></path>
                <path d="M381.43,88.76 L376.76,98.64 L368.59,98.64 L388.43,57.93 L396.36,57.93 L416.22,98.64 L408.08,98.64 L403.4,88.76 L381.43,88.76 Z M384.57,82.15 L400.25,82.15 L392.44,65.64 L384.57,82.15 Z" id="Shape" fill="#1D1D1B"></path>
                <polygon id="Path" fill="#1D1D1B" points="421.77 98.64 421.77 57.93 429.31 57.93 429.31 91.92 456.5 91.92 456.5 98.64"></polygon>
                <polygon id="Path" fill="#1D1D1B" points="461.6 98.64 461.6 57.93 498.71 57.93 498.71 64.65 469.16 64.65 469.16 74.54 492.13 74.54 492.13 81.27 469.16 81.27 469.16 91.92 500 91.92 500 98.64"></polygon>
                <rect id="Rectangle" fill="#FFFFFF" x="0" y="0" width="102.17" height="102.17"></rect>
                <rect id="Rectangle" fill="#E4032E" x="2.43" y="2.43" width="97.3" height="49.63"></rect>
                <rect id="Rectangle" fill="#1D1D1B" x="2.43" y="51.08" width="97.3" height="48.65"></rect>
                <rect id="Rectangle" fill="#FFFFFF" x="19.43" y="48.12" width="63.3" height="5.92"></rect>
            </g>
        </g>
    </g>
</svg>