<?xml version="1.0" encoding="UTF-8"?>
<svg width="500px" height="189px" viewBox="0 0 500 189" version="1.1" xmlns="http://www.w3.org/2000/svg" xmlns:xlink="http://www.w3.org/1999/xlink">
    <!-- Generator: Sketch 54.1 (76490) - https://sketchapp.com -->
    <title>xtb</title>
    <desc>Created with Sketch.</desc>
    <g id="Page-1" stroke="none" stroke-width="1" fill="none" fill-rule="evenodd">
        <g id="Artboard" transform="translate(-1343.000000, -549.000000)" fill-rule="nonzero">
            <g id="xtb" transform="translate(1343.000000, 549.000000)">
                <g id="Group" transform="translate(222.222222, 144.444444)" fill="#000000">
                    <g id="e27ea-link">
                        <path d="M10.5555556,7.88888889 C17.2222222,7.88888889 21.1111111,11.8888889 21.1111111,19.2777778 C21.1111111,26.3333333 17.1111111,30.5 10.5555556,30.5 C3.83333333,30.5 0,26.5 0,19.2777778 C0,12.0555556 3.83333333,7.88888889 10.5555556,7.88888889 Z M10.5555556,28.2777778 C15.5,28.2777778 18.3333333,25.0555556 18.3333333,19.2777778 C18.3333333,13.3333333 15.3333333,10.0555556 10.5555556,10.0555556 C5.61111111,10.0555556 2.77777778,13.3333333 2.77777778,19.2777778 C2.77777778,25.0555556 5.77777778,28.2777778 10.5555556,28.2777778 Z M37,7.88888889 C40.1111111,7.88888889 42.5555556,8.88888889 43.6666667,11.1111111 C44.5,12.3888889 44.6666667,14.0555556 44.6666667,16.3888889 L44.6666667,30.1111111 L42.0555556,30.1111111 L42.0555556,16.6666667 C42.0555556,12.2222222 41.1111111,10.2222222 36.4444444,10.2222222 C32.1666667,10.2222222 29.4444444,12.7777778 29.4444444,17.3333333 L29.4444444,30 L26.8333333,30 L26.8333333,8.38888889 L29.4444444,8.38888889 L29.4444444,11.8888889 C31.1111111,9.16666667 33.6666667,7.88888889 37,7.88888889 L37,7.88888889 Z M51.8888889,30 L51.8888889,0.111111111 L54.5,0.111111111 L54.5,30 L51.8888889,30 Z M61.8888889,30 L61.8888889,8.38888889 L64.5,8.38888889 L64.5,30 L61.8888889,30 Z M61.8888889,3.72222222 L61.8888889,1.11022302e-16 L64.5,1.11022302e-16 L64.5,3.72222222 L61.8888889,3.72222222 Z M81.8888889,7.88888889 C85.0555556,7.88888889 87.5,8.88888889 88.6111111,11.1111111 C89.4444444,12.3888889 89.5555556,14.0555556 89.5555556,16.3888889 L89.5555556,30.1111111 L86.9444444,30.1111111 L86.9444444,16.6666667 C86.9444444,12.2222222 86,10.2222222 81.3888889,10.2222222 C77.1111111,10.2222222 74.3888889,12.7777778 74.3888889,17.3333333 L74.3888889,30 L71.7777778,30 L71.7777778,8.38888889 L74.3888889,8.38888889 L74.3888889,11.8888889 C76.0555556,9.16666667 78.6111111,7.88888889 81.8888889,7.88888889 L81.8888889,7.88888889 Z M105.444444,7.88888889 C111.5,7.88888889 115.166667,11.7777778 115.166667,18.8888889 L115.166667,19.6111111 L98.2222222,19.6111111 L98.2222222,19.7777778 C98.2222222,25.1666667 101.222222,28.2777778 105.611111,28.2777778 C109.166667,28.2777778 111.722222,26.3333333 112.277778,23.2777778 L114.888889,23.2777778 C114.333333,27.6666667 110.666667,30.5 105.444444,30.5 C99.3333333,30.5 95.4444444,26.3333333 95.4444444,19.2777778 C95.4444444,12.0555556 99.3333333,7.88888889 105.444444,7.88888889 L105.444444,7.88888889 Z M98.0555556,17.5555556 L112.333333,17.5555556 C112.166667,12.7777778 109.444444,10.0555556 105.333333,10.0555556 C101.222222,10.0555556 98.3333333,12.8333333 98.1111111,17.5555556 L98.0555556,17.5555556 Z M137.111111,2.22222222 L137.111111,8.38888889 L141.333333,8.38888889 L141.333333,10.4444444 L137.111111,10.4444444 L137.111111,26.1111111 C137.111111,27.6666667 137.388889,28.4444444 138.777778,28.4444444 C139.555556,28.4444444 140.388889,28.2777778 141.333333,28.0555556 L141.333333,30 C140.111111,30.3888889 139,30.5 138.055556,30.5 C135.166667,30.5 134.5,29.0555556 134.5,26.0555556 L134.5,10.5 L131.333333,10.5 L131.333333,8.38888889 L134.5,8.38888889 L134.5,2.22222222 L137.111111,2.22222222 Z M149.166667,12.1666667 C150.5,9.16666667 152.833333,7.88888889 156.111111,8 L156.388889,8 L156.388889,10.6111111 L156,10.6111111 C151.5,10.6111111 149.166667,13.0555556 149.166667,18.1111111 L149.166667,30 L146.555556,30 L146.555556,8.38888889 L149.166667,8.38888889 L149.166667,12.1666667 Z M178.611111,26.0555556 C178.611111,27.5 178.611111,28.1666667 180.111111,28.1666667 L181.055556,28.1666667 L181.055556,30 C180.222222,30.2222222 179.555556,30.2222222 179.166667,30.2222222 C176.944444,30.2222222 175.833333,29.3333333 175.833333,27.2777778 L175.833333,26.8888889 C173.555556,29.3333333 170.666667,30.5 167.5,30.5 C162.833333,30.5 160,28.0555556 160,24.2777778 C159.929369,21.8778891 161.408398,19.7041652 163.666667,18.8888889 C166.111111,17.7777778 168.888889,17.7777778 171.888889,17.5555556 C175.055556,16.9444444 175.833333,16.9444444 175.833333,14.7777778 C175.833333,11.5 174.5,10.0555556 170.277778,10.0555556 C166.111111,10.0555556 163.944444,11.7222222 163.833333,14.8333333 L161.222222,14.8333333 C161.222222,10.6111111 164.611111,7.88888889 170.222222,7.88888889 C175.722222,7.88888889 178.555556,10.1111111 178.555556,14.3333333 L178.611111,26.0555556 Z M167.777778,28.2777778 C172.555556,28.2777778 176,25.7222222 175.722222,21.6111111 L175.722222,18.6111111 C173.833333,19.2777778 170.944444,19.3888889 167.666667,19.6111111 C164.333333,20.3888889 162.555556,21.9444444 162.555556,24.1666667 C162.555556,26.6111111 164.611111,28.2777778 167.777778,28.2777778 Z M202.722222,12.1666667 L202.722222,0.111111111 L205.333333,0.111111111 L205.333333,30 L202.722222,30 L202.722222,26.3333333 C200.944444,29.2222222 198.166667,30.6111111 194.611111,30.6111111 C188.611111,30.6111111 184.611111,26.3333333 184.611111,19.2777778 C184.611111,12.1666667 188.611111,7.88888889 194.777778,7.88888889 C198.444444,7.88888889 201.055556,9.27777778 202.722222,12.1666667 Z M195.166667,28.2777778 C200.111111,28.2777778 202.833333,25.0555556 202.833333,19.1111111 C202.833333,13.1666667 199.944444,9.94444444 195.166667,9.94444444 C190.222222,9.94444444 187.388889,13.1666667 187.388889,19.1111111 C187.388889,24.9444444 190.222222,28.2777778 195.166667,28.2777778 Z M212.555556,29.9444444 L212.555556,8.38888889 L215.166667,8.38888889 L215.166667,30 L212.555556,29.9444444 Z M212.555556,3.72222222 L212.555556,1.11022302e-16 L215.166667,1.11022302e-16 L215.166667,3.72222222 L212.555556,3.72222222 Z M232.555556,7.88888889 C235.722222,7.88888889 238.166667,8.88888889 239.222222,11.1111111 C240.111111,12.3888889 240.222222,14.0555556 240.222222,16.3888889 L240.222222,30.1111111 L237.611111,30.1111111 L237.611111,16.6666667 C237.611111,12.2222222 236.666667,10.2222222 232.055556,10.2222222 C227.777778,10.2222222 225.055556,12.7777778 225.055556,17.3333333 L225.055556,30 L222.444444,30 L222.444444,8.38888889 L225.055556,8.38888889 L225.055556,11.8888889 C226.722222,9.16666667 229.277778,7.88888889 232.555556,7.88888889 L232.555556,7.88888889 Z M264.055556,8.5 L266.666667,8.5 L266.666667,28.9444444 C266.666667,35.5555556 262.944444,38.8888889 255.833333,38.8888889 C250.388889,38.8888889 246.944444,36.4444444 246.666667,32.5555556 L249.444444,32.5555556 C249.666667,35.1666667 252,36.6666667 255.833333,36.6666667 C261.333333,36.6666667 264.055556,34.1111111 264.055556,29.0555556 L264.055556,26.3333333 C262.381749,29.0972162 259.339934,30.7351165 256.111111,30.6111111 C250,30.6111111 246,26.3333333 246,19.2777778 C246,12.1666667 250.111111,7.88888889 256.111111,7.88888889 C259.666667,7.88888889 262.277778,9.27777778 264.055556,12.1666667 L264.055556,8.5 Z M264.333333,19.1111111 C264.333333,13.1666667 261.444444,9.94444444 256.666667,9.94444444 C251.722222,9.94444444 248.888889,13.1666667 248.888889,19.1111111 C248.888889,24.9444444 251.888889,28.2777778 256.666667,28.2777778 C261.333333,28.2777778 264.333333,25.0555556 264.333333,19.1111111 Z" id="e27ea"></path>
                    </g>
                </g>
                <g id="Group" transform="translate(222.222222, 38.888889)" fill="#000000">
                    <g id="e27eb-link">
                        <polygon id="e27eb" points="60.8888889 88.8888889 46.9444444 64.4444444 33.3888889 88.8888889 0 88.8888889 31.1111111 42.5555556 1.22222222 0 35.2222222 0 47.2222222 21.2777778 59.5 0 93.0555556 0 63.3888889 42.5555556 94.4444444 88.8888889"></polygon>
                    </g>
                </g>
                <g id="Group" transform="translate(411.111111, 11.111111)" fill="#000000">
                    <g id="e27ec-link">
                        <path d="M27.7777778,103.444444 L27.7777778,115.111111 L0,115.111111 L0,0.666666667 L27.6111111,0.666666667 L27.6111111,38.5555556 C33.076471,29.6768455 42.9166258,24.4485991 53.3333333,24.8888889 C73.6111111,24.8888889 88.8888889,43.3888889 88.8888889,71.7222222 C88.8888889,99.1666667 74,117.333333 52.9444444,117.333333 C42.1111111,117.333333 33.9444444,112.888889 27.7777778,103.444444 L27.7777778,103.444444 Z M44.1111111,47.1111111 C33.6666667,47.1111111 27.3333333,55.3333333 27.3333333,70.1111111 C27.3333333,86.0555556 33,94.3333333 43.4444444,94.3333333 C54,94.3333333 60.1111111,85.9444444 60.1111111,70.1111111 C60.1111111,55.7777778 53.7777778,47.1111111 44.1111111,47.1111111 Z" id="e27ec"></path>
                    </g>
                </g>
                <g id="Group" transform="translate(333.333333, 11.111111)" fill="#000000">
                    <g id="e27ed-link">
                        <path d="M55.5555556,48.4444444 L55.5555556,26.8333333 L40.6666667,26.8333333 L40.6666667,0 L11.8333333,0 L11.8333333,26.8333333 L0,26.8333333 L0,48.5 L11.8333333,48.5 L11.8333333,86.8333333 C11.8333333,93.5 7.77777778,125.111111 55.2777778,114.5 L55.2777778,96.1666667 C53.8888889,96.3333333 52.6111111,96.3333333 51.5,96.3333333 C42.3333333,96.3333333 40.6666667,92.4444444 40.6666667,82.0555556 L40.6666667,48.3333333 L55.5555556,48.3333333 L55.5555556,48.4444444 Z" id="e27ed"></path>
                    </g>
                </g>
                <g id="Group" transform="translate(5.555556, 33.333333)" fill="#FFFFFF">
                    <g id="e27ee-link">
                        <polygon id="e27ee" points="0 122.222222 0 0 172.222222 0 172.222222 122.222222"></polygon>
                    </g>
                </g>
                <g id="Group" fill="#E30613">
                    <g id="e27ef-link">
                        <path d="M0,188.888889 L0,0 L188.888889,0 L188.888889,188.888889 L0,188.888889 Z M178.111111,143.333333 C163.168482,123.457786 145.298743,105.962676 125.111111,91.4444444 C142.024278,78.2462391 157.101642,62.8512601 169.944444,45.6666667 L120.222222,55.1111111 C119.388889,55.7222222 118.555556,56.5555556 117.722222,57.2222222 C111.259355,63.1219245 104.451017,68.6316696 97.3333333,73.7222222 C91.0555556,70.3333333 84.5,67.0555556 77.8333333,63.9444444 L18.9444444,75.6111111 C35.2233121,79.911683 51.097804,85.6183212 66.3888889,92.6666667 C59.2952357,96.2206532 52.0676854,99.5008491 44.7222222,102.5 C33.6438306,106.859687 22.3075791,110.5333 10.7777778,113.5 L69.6666667,125.222222 C79.4039825,120.796179 88.8655922,115.787092 98,110.222222 C107.852508,116.681988 117.194752,123.888331 125.944444,131.777778 L128.388889,134 L178.111111,143.333333 Z" id="e27ef"></path>
                    </g>
                </g>
            </g>
        </g>
    </g>
</svg>